<?xml version="1.0" encoding="UTF-8"?>
<svg xmlns="http://www.w3.org/2000/svg" xmlns:xlink="http://www.w3.org/1999/xlink" width="48px" height="48px" viewBox="0 0 48 48" version="1.1">
<defs>
<linearGradient id="linear0" gradientUnits="userSpaceOnUse" x1="64.0002" y1="116" x2="68" y2="14.5" >
<stop offset="0" style="stop-color:rgb(56.470588%,0%,100%);stop-opacity:1;"/>
<stop offset="1" style="stop-color:rgb(100%,63.921569%,30.588235%);stop-opacity:1;"/>
</linearGradient>
<linearGradient id="linear1" gradientUnits="userSpaceOnUse" x1="64.0002" y1="116" x2="68" y2="14.5" >
<stop offset="0" style="stop-color:rgb(56.470588%,0%,100%);stop-opacity:1;"/>
<stop offset="1" style="stop-color:rgb(100%,63.921569%,30.588235%);stop-opacity:1;"/>
</linearGradient>
</defs>
<g id="surface1">
<path style="fill-rule:nonzero;fill:url(#linear0);stroke-width:3;stroke-linecap:butt;stroke-linejoin:miter;stroke:url(#linear1);stroke-miterlimit:4;" d="M 115.989583 84.59375 C 120.697917 67.34375 116.291667 49.166667 104.177083 35.895833 C 104.90625 34.28125 105.197917 32.489583 104.96875 30.6875 C 104.625 28.104167 103.291667 25.8125 101.208333 24.229167 C 79.791667 7.927083 48.822917 7.916667 27.416667 24.229167 C 23.895833 26.90625 22.53125 31.65625 24.447917 35.895833 C 12.4375 49.052083 8 67.072917 12.53125 84.208333 C 8.75 86.614583 6.989583 91.364583 8.59375 95.71875 L 13.083333 107.927083 C 14.9375 112.96875 20.572917 115.59375 25.697917 113.75 L 29.395833 112.416667 C 30.3125 113.520833 31.40625 114.458333 32.75 115.083333 C 35.072917 116.15625 37.75 116.322917 40.28125 115.40625 C 42.75 114.520833 44.71875 112.729167 45.833333 110.375 C 46.947917 108.010417 47.0625 105.364583 46.15625 102.927083 L 37.1875 78.510417 C 36.28125 76.072917 34.479167 74.114583 32.09375 73.020833 C 29.708333 71.916667 27.03125 71.802083 24.5625 72.6875 C 22.09375 73.583333 20.125 75.375 19.010417 77.729167 C 18.635417 78.520833 18.416667 79.354167 18.270833 80.197917 C 15.322917 66.041667 19.270833 51.447917 29.020833 40.5625 C 32.927083 42.510417 36.729167 41.729167 39.416667 39.666667 C 53.760417 28.739583 74.864583 28.739583 89.197917 39.666667 C 92.197917 41.947917 96.3125 42.135417 99.59375 40.5625 C 109.770833 51.90625 113.572917 67.25 109.916667 81.9375 L 109.885417 81.927083 C 109.895833 80.489583 109.625 79.0625 109 77.729167 C 107.885417 75.375 105.90625 73.583333 103.4375 72.697917 C 100.96875 71.8125 98.291667 71.916667 95.916667 73.020833 C 93.53125 74.114583 91.729167 76.072917 90.822917 78.510417 L 81.84375 102.927083 C 80.947917 105.364583 81.0625 108.010417 82.177083 110.375 C 83.864583 113.96875 87.458333 116 91.104167 116 C 92.520833 116 93.927083 115.6875 95.260417 115.083333 C 96.604167 114.458333 97.697917 113.520833 98.614583 112.416667 L 102.302083 113.75 C 107.354167 115.572917 113.041667 113.041667 114.916667 107.927083 L 119.40625 95.71875 C 120.9375 91.583333 119.395833 87.104167 115.989583 84.59375 Z M 26.8125 78.791667 C 28.541667 78.177083 30.395833 79.0625 31.020833 80.729167 L 39.989583 105.145833 C 40.604167 106.822917 39.75 108.6875 38.03125 109.302083 C 36.270833 109.9375 34.427083 109.010417 33.822917 107.364583 L 24.854167 82.958333 C 24.229167 81.270833 25.104167 79.40625 26.8125 78.791667 Z M 19.802083 88.229167 L 26.541667 106.53125 L 23.458333 107.645833 C 21.75 108.25 19.864583 107.385417 19.25 105.708333 L 14.760417 93.5 C 14.145833 91.822917 15 89.958333 16.71875 89.333333 Z M 97.802083 33.927083 C 96.739583 35.302083 94.604167 35.583333 93.197917 34.520833 C 76.510417 21.802083 52.114583 21.802083 35.416667 34.520833 C 33.958333 35.635417 31.90625 35.333333 30.822917 33.927083 C 29.697917 32.489583 29.989583 30.458333 31.416667 29.375 C 40.947917 22.125 52.583333 18.489583 64 18.489583 C 75.416667 18.489583 87.677083 22.125 97.208333 29.375 C 98.635417 30.458333 98.916667 32.489583 97.802083 33.927083 Z M 94.177083 107.364583 C 93.552083 109.052083 91.6875 109.916667 89.96875 109.302083 C 88.25 108.6875 87.395833 106.822917 88.010417 105.145833 L 96.989583 80.729167 C 97.604167 79.083333 99.4375 78.177083 101.197917 78.791667 C 102.916667 79.416667 103.770833 81.28125 103.15625 82.958333 Z M 113.25 93.5 L 108.75 105.708333 C 108.135417 107.385417 106.28125 108.25 104.552083 107.645833 L 101.46875 106.53125 L 108.197917 88.229167 L 111.145833 89.291667 C 111.166667 89.291667 111.177083 89.302083 111.1875 89.3125 C 111.208333 89.3125 111.21875 89.3125 111.229167 89.3125 L 111.28125 89.333333 C 113 89.958333 113.854167 91.822917 113.25 93.5 Z M 113.25 93.5 " transform="matrix(0.375,0,0,0.375,0,0)"/>
</g>
</svg>
