<?xml version="1.0" encoding="UTF-8"?>
<svg xmlns="http://www.w3.org/2000/svg" xmlns:xlink="http://www.w3.org/1999/xlink" width="48px" height="48px" viewBox="0 0 48 48" version="1.1">
<defs>
<linearGradient id="linear0" gradientUnits="userSpaceOnUse" x1="3.19056" y1="4.55103" x2="60.9218" y2="64.0485" gradientTransform="matrix(0.75,0,0,0.75,0,0)">
<stop offset="0" style="stop-color:rgb(97.647059%,83.137255%,13.72549%);stop-opacity:1;"/>
<stop offset="0.515624" style="stop-color:rgb(100%,30.588235%,31.372549%);stop-opacity:1;"/>
<stop offset="0.991304" style="stop-color:rgb(54.117647%,13.72549%,52.941176%);stop-opacity:1;"/>
</linearGradient>
</defs>
<g id="surface1">
<path style=" stroke:none;fill-rule:nonzero;fill:url(#linear0);" d="M 35.375 3 L 12.625 3 C 10.074219 3.003906 7.625 4.019531 5.820312 5.820312 C 4.019531 7.625 3.003906 10.074219 3 12.625 L 3 35.375 C 3.003906 37.925781 4.019531 40.375 5.820312 42.179688 C 7.625 43.980469 10.074219 44.996094 12.625 45 L 35.375 45 C 37.925781 44.996094 40.375 43.980469 42.179688 42.179688 C 43.980469 40.375 44.996094 37.925781 45 35.375 L 45 12.625 C 44.996094 10.074219 43.980469 7.625 42.179688 5.820312 C 40.375 4.019531 37.925781 3.003906 35.375 3 Z M 8.25 20.5 L 11.75 20.5 L 11.75 27.5 L 8.25 27.5 Z M 31 21.375 L 17 21.375 L 17 8.25 L 31 8.25 Z M 17 26.625 L 31 26.625 L 31 39.75 L 17 39.75 Z M 36.25 20.5 L 39.75 20.5 L 39.75 27.5 L 36.25 27.5 Z M 39.75 12.625 L 39.75 15.25 L 36.25 15.25 L 36.25 8.339844 C 37.238281 8.539062 38.125 9.078125 38.761719 9.859375 C 39.402344 10.640625 39.75 11.617188 39.75 12.625 Z M 11.75 8.339844 L 11.75 15.25 L 8.25 15.25 L 8.25 12.625 C 8.25 11.617188 8.597656 10.640625 9.238281 9.859375 C 9.875 9.078125 10.761719 8.539062 11.75 8.339844 Z M 8.25 35.375 L 8.25 32.75 L 11.75 32.75 L 11.75 39.660156 C 10.761719 39.460938 9.875 38.921875 9.238281 38.140625 C 8.597656 37.359375 8.25 36.382812 8.25 35.375 Z M 36.25 39.660156 L 36.25 32.75 L 39.75 32.75 L 39.75 35.375 C 39.75 36.382812 39.402344 37.359375 38.761719 38.140625 C 38.125 38.921875 37.238281 39.460938 36.25 39.660156 Z M 36.25 39.660156 "/>
</g>
</svg>
