<?xml version="1.0" encoding="UTF-8"?>
<svg xmlns="http://www.w3.org/2000/svg" xmlns:xlink="http://www.w3.org/1999/xlink" width="48px" height="48px" viewBox="0 0 48 48" version="1.1">
<defs>
<linearGradient id="linear0" gradientUnits="userSpaceOnUse" x1="10.0157" y1="62.6369" x2="117.178" y2="62.6369" gradientTransform="matrix(0.375,0,0,0.375,0,0)">
<stop offset="0" style="stop-color:rgb(66.27451%,22.745098%,100%);stop-opacity:1;"/>
<stop offset="1" style="stop-color:rgb(100%,50.588235%,100%);stop-opacity:1;"/>
</linearGradient>
</defs>
<g id="surface1">
<path style=" stroke:none;fill-rule:evenodd;fill:url(#linear0);" d="M 43.933594 12.886719 C 43.933594 16.273438 41.1875 19.023438 37.796875 19.023438 C 34.410156 19.023438 31.664062 16.273438 31.664062 12.886719 C 31.664062 9.496094 34.410156 6.75 37.796875 6.75 C 41.1875 6.75 43.933594 9.496094 43.933594 12.886719 Z M 8.589844 16.933594 C 8.175781 16.933594 7.839844 17.269531 7.839844 17.683594 L 7.839844 35.277344 C 7.839844 35.691406 7.503906 36.027344 7.089844 36.027344 L 4.5 36.027344 C 4.085938 36.027344 3.75 35.691406 3.75 35.277344 L 3.75 13.621094 C 3.738281 13.066406 3.949219 12.53125 4.332031 12.128906 C 4.714844 11.726562 5.242188 11.496094 5.796875 11.480469 L 28.226562 11.480469 C 28.640625 11.480469 28.972656 11.816406 29.003906 12.230469 C 29.09375 13.445312 29.402344 14.632812 29.910156 15.738281 C 30.15625 16.273438 29.785156 16.933594 29.195312 16.933594 Z M 40.964844 21.550781 C 41.453125 21.460938 41.933594 21.820312 41.933594 22.320312 L 41.933594 35.277344 C 41.933594 35.691406 41.597656 36.027344 41.183594 36.027344 L 38.589844 36.027344 C 38.175781 36.027344 37.839844 35.691406 37.839844 35.277344 L 37.839844 22.464844 C 37.839844 22.007812 38.246094 21.660156 38.703125 21.6875 C 39.460938 21.730469 40.21875 21.683594 40.964844 21.550781 Z M 5.683594 41.25 C 4.738281 41.25 3.964844 40.320312 3.964844 39.1875 C 3.964844 38.054688 4.738281 37.125 5.683594 37.125 L 40.117188 37.125 C 41.0625 37.125 41.839844 38.054688 41.839844 39.1875 C 41.839844 40.320312 41.0625 41.25 40.117188 41.25 Z M 5.683594 41.25 "/>
</g>
</svg>
